<svg width="34" height="38" viewBox="0 0 34 38" fill="none" xmlns="http://www.w3.org/2000/svg">
<path fill-rule="evenodd" clip-rule="evenodd" d="M15.5588 0.237786C16.2987 -0.0390534 17.1071 -0.0751444 17.8687 0.134661L18.1912 0.237786L31.3162 5.15966C31.9817 5.40921 32.5626 5.84273 32.9912 6.40973C33.4197 6.97672 33.6784 7.65383 33.7369 8.36216L33.75 8.67154V18.7272C33.7499 21.7655 32.9296 24.7474 31.3755 27.3581C29.8215 29.9689 27.5914 32.1117 24.9206 33.5603L24.4219 33.8209L18.1331 36.9653C17.7869 37.1382 17.4086 37.2377 17.0221 37.2577C16.6356 37.2777 16.2491 37.2178 15.8869 37.0815L15.6169 36.9653L9.32812 33.8209C6.61052 32.4621 4.3102 30.3947 2.67001 27.8371C1.02981 25.2794 0.110588 22.3264 0.00937521 19.2897L0 18.7272V8.67154C1.09032e-05 7.96115 0.2018 7.26539 0.581876 6.66523C0.961952 6.06508 1.50468 5.58523 2.14687 5.28154L2.43375 5.15966L15.5588 0.237786ZM23.3119 12.3015L14.6906 20.9228L11.3756 17.6078C11.0238 17.2562 10.5467 17.0588 10.0493 17.059C9.55196 17.0591 9.07502 17.2569 8.72344 17.6087C8.37186 17.9605 8.17444 18.4376 8.17462 18.935C8.1748 19.4324 8.37255 19.9093 8.72437 20.2609L13.2319 24.7684C13.4234 24.96 13.6508 25.112 13.9011 25.2158C14.1514 25.3195 14.4197 25.3728 14.6906 25.3728C14.9616 25.3728 15.2298 25.3195 15.4801 25.2158C15.7304 25.112 15.9578 24.96 16.1494 24.7684L25.9631 14.9528C26.1422 14.7798 26.285 14.5729 26.3833 14.3442C26.4816 14.1154 26.5333 13.8694 26.5355 13.6204C26.5376 13.3715 26.4902 13.1246 26.3959 12.8941C26.3016 12.6637 26.1624 12.4543 25.9864 12.2783C25.8103 12.1022 25.601 11.963 25.3705 11.8687C25.1401 11.7745 24.8932 11.727 24.6442 11.7292C24.3953 11.7314 24.1492 11.7831 23.9205 11.8813C23.6917 11.9796 23.4848 12.1225 23.3119 12.3015Z" fill="#5060FE"/>
</svg>
