<svg width="29" height="37" viewBox="0 0 29 37" fill="none" xmlns="http://www.w3.org/2000/svg">
<path fill-rule="evenodd" clip-rule="evenodd" d="M24.8947 1.16549C25.0755 0.72325 25.4183 0.366701 25.8531 0.168662C26.2879 -0.0293763 26.7819 -0.0539653 27.2342 0.0999164C27.6865 0.253798 28.063 0.574543 28.2868 0.996648C28.5107 1.41875 28.5649 1.91038 28.4385 2.37112L28.3672 2.57737L23.4735 14.6149L24.7054 14.943C26.6741 15.4699 28.3129 17.0692 28.6241 19.2517C28.8904 21.1267 29.1397 23.9767 28.7966 26.913C28.4554 29.823 27.5029 33.0592 25.146 35.4367C24.2797 36.3105 23.0366 36.4492 22.1966 36.4642C21.2385 36.4792 20.1341 36.333 18.9997 36.108C16.7197 35.6542 13.9841 34.8142 11.3985 33.9217L10.6222 33.6499L9.09786 33.0986L7.63536 32.553L6.25911 32.0224L4.42536 31.2949C3.38991 30.8806 2.35983 30.4531 1.33536 30.0124C1.03738 29.8832 0.778045 29.6789 0.582766 29.4194C0.387487 29.1599 0.262957 28.8542 0.221373 28.5321C0.179788 28.21 0.222577 27.8826 0.345545 27.582C0.468514 27.2814 0.667447 27.018 0.92286 26.8174C3.50661 24.7924 5.92911 22.4636 7.97661 20.313L8.96661 19.2555C9.12786 19.083 9.28536 18.9105 9.43724 18.7417L10.3222 17.7536L10.7347 17.2811L11.8485 15.978L12.4804 15.2167C13.1415 14.4044 14.0101 13.786 14.9941 13.4272C15.9781 13.0684 17.0409 12.9825 18.0697 13.1786L18.4429 13.2649L19.8247 13.6342L24.8947 1.16549ZM17.4716 16.8874C17.0916 16.7926 16.6923 16.809 16.3213 16.9346C15.9504 17.0603 15.6233 17.2899 15.3791 17.5961L14.9235 18.1455L25.0447 20.8567L24.9566 20.1217C24.9416 20.0079 24.926 19.8942 24.9097 19.7805C24.8422 19.3061 24.5066 18.8599 23.9535 18.6367L23.736 18.5655L17.4716 16.8874ZM2.93286 10.7336L3.05286 10.9961C3.56416 12.0538 4.36941 12.9417 5.37223 13.5536L5.55973 13.6624C5.57921 13.6735 5.5954 13.6896 5.60666 13.7091C5.61792 13.7285 5.62384 13.7505 5.62384 13.773C5.62384 13.7954 5.61792 13.8175 5.60666 13.8369C5.5954 13.8563 5.57921 13.8725 5.55973 13.8836L5.37223 13.9924C4.36956 14.6056 3.56493 15.4948 3.05473 16.5536L2.93473 16.8142C2.92434 16.8379 2.90727 16.858 2.88563 16.8722C2.86399 16.8863 2.8387 16.8938 2.81286 16.8938C2.78701 16.8938 2.76173 16.8863 2.74009 16.8722C2.71844 16.858 2.70138 16.8379 2.69098 16.8142L2.57098 16.5517C2.05969 15.4941 1.25444 14.6061 0.25161 13.9942L0.0641093 13.8855C0.0446295 13.8743 0.028443 13.8582 0.0171858 13.8388C0.00592858 13.8194 0 13.7973 0 13.7749C0 13.7524 0.00592858 13.7304 0.0171858 13.7109C0.028443 13.6915 0.0446295 13.6754 0.0641093 13.6642L0.25161 13.5555C1.25359 12.942 2.05754 12.0528 2.56723 10.9942L2.68723 10.7336C2.69763 10.71 2.71469 10.6898 2.73634 10.6757C2.75798 10.6616 2.78326 10.6541 2.80911 10.6541C2.83496 10.6541 2.86024 10.6616 2.88188 10.6757C2.90353 10.6898 2.92246 10.71 2.93286 10.7336ZM8.24286 1.62299C8.31786 1.45424 8.55411 1.45424 8.62911 1.62299L8.82036 2.03924C9.63476 3.72295 10.9172 5.13623 12.5141 6.10987L12.8085 6.28424C12.8401 6.30176 12.8665 6.32743 12.8849 6.35859C12.9033 6.38975 12.9129 6.42526 12.9129 6.46143C12.9129 6.4976 12.9033 6.53312 12.8849 6.56428C12.8665 6.59544 12.8401 6.62111 12.8085 6.63862L12.5122 6.81112C10.9151 7.78526 9.63259 9.19923 8.81849 10.8836L8.63098 11.2999C8.61446 11.3376 8.58731 11.3697 8.55284 11.3922C8.51838 11.4147 8.47809 11.4267 8.43692 11.4267C8.39575 11.4267 8.35547 11.4147 8.321 11.3922C8.28654 11.3697 8.25938 11.3376 8.24286 11.2999L8.05161 10.8836C7.23751 9.19923 5.95504 7.78526 4.35786 6.81112L4.06161 6.63862C4.02996 6.62111 4.00358 6.59544 3.9852 6.56428C3.96683 6.53312 3.95714 6.4976 3.95714 6.46143C3.95714 6.42526 3.96683 6.38975 3.9852 6.35859C4.00358 6.32743 4.02996 6.30176 4.06161 6.28424L4.35973 6.10987C5.95665 5.13623 7.23908 3.72295 8.05348 2.03924L8.24098 1.62299H8.24286Z" fill="#5060FE"/>
</svg>
