<svg width="38" height="38" viewBox="0 0 38 38" fill="none" xmlns="http://www.w3.org/2000/svg">
<path d="M10.3125 31.875C11.0584 31.875 11.7738 32.1713 12.3012 32.6988C12.8287 33.2262 13.125 33.9416 13.125 34.6875C13.125 35.4334 12.8287 36.1488 12.3012 36.6762C11.7738 37.2037 11.0584 37.5 10.3125 37.5C9.56658 37.5 8.85121 37.2037 8.32376 36.6762C7.79632 36.1488 7.5 35.4334 7.5 34.6875C7.5 33.9416 7.79632 33.2262 8.32376 32.6988C8.85121 32.1713 9.56658 31.875 10.3125 31.875ZM29.0625 31.875C29.8084 31.875 30.5238 32.1713 31.0512 32.6988C31.5787 33.2262 31.875 33.9416 31.875 34.6875C31.875 35.4334 31.5787 36.1488 31.0512 36.6762C30.5238 37.2037 29.8084 37.5 29.0625 37.5C28.3166 37.5 27.6012 37.2037 27.0738 36.6762C26.5463 36.1488 26.25 35.4334 26.25 34.6875C26.25 33.9416 26.5463 33.2262 27.0738 32.6988C27.6012 32.1713 28.3166 31.875 29.0625 31.875ZM1.875 0C5.11125 0 7.54312 2.40562 7.77187 5.625H33.3788C33.9281 5.62492 34.4708 5.74553 34.9684 5.97832C35.466 6.21111 35.9063 6.55038 36.2583 6.97215C36.6104 7.39391 36.8654 7.88786 37.0054 8.41907C37.1455 8.95028 37.1671 9.50577 37.0688 10.0462L33.9994 26.9212C33.8422 27.7853 33.3867 28.5668 32.7124 29.1294C32.038 29.692 31.1876 30.0001 30.3094 30H9.24563C8.29714 30 7.38388 29.6406 6.68979 28.9942C5.99569 28.3478 5.57234 27.4623 5.505 26.5163L4.005 5.49187C3.91875 4.33125 2.9325 3.75 1.875 3.75C1.37772 3.75 0.900805 3.55246 0.549175 3.20083C0.197544 2.84919 0 2.37228 0 1.875C0 1.37772 0.197544 0.900805 0.549175 0.549175C0.900805 0.197544 1.37772 0 1.875 0Z" fill="#5060FE"/>
</svg>
