<svg width="34" height="38" viewBox="0 0 34 38" fill="none" xmlns="http://www.w3.org/2000/svg">
<path d="M16.875 20.625C21.3675 20.625 25.4531 21.9262 28.4587 23.76C29.9587 24.675 31.2413 25.755 32.1675 26.9287C33.0788 28.0819 33.75 29.4619 33.75 30.9375C33.75 32.5219 32.9794 33.7706 31.8694 34.6613C30.8194 35.505 29.4338 36.0637 27.9619 36.4537C25.0031 37.2356 21.0544 37.5 16.875 37.5C12.6956 37.5 8.74687 37.2375 5.78812 36.4537C4.31625 36.0637 2.93062 35.505 1.88062 34.6613C0.76875 33.7688 0 32.5219 0 30.9375C0 29.4619 0.67125 28.0819 1.5825 26.9269C2.50875 25.755 3.78938 24.6769 5.29125 23.7581C8.29688 21.9281 12.3844 20.625 16.875 20.625ZM16.875 0C19.3614 0 21.746 0.98772 23.5041 2.74587C25.2623 4.50403 26.25 6.8886 26.25 9.375C26.25 11.8614 25.2623 14.246 23.5041 16.0041C21.746 17.7623 19.3614 18.75 16.875 18.75C14.3886 18.75 12.004 17.7623 10.2459 16.0041C8.48772 14.246 7.5 11.8614 7.5 9.375C7.5 6.8886 8.48772 4.50403 10.2459 2.74587C12.004 0.98772 14.3886 0 16.875 0Z" fill="#5060FE"/>
</svg>
