<svg width="38" height="38" viewBox="0 0 38 38" fill="none" xmlns="http://www.w3.org/2000/svg">
<path d="M18.7479 31.875C19.2452 31.875 19.7221 32.0725 20.0737 32.4242C20.4254 32.7758 20.6229 33.2527 20.6229 33.75V35.625C20.6229 36.1223 20.4254 36.5992 20.0737 36.9508C19.7221 37.3025 19.2452 37.5 18.7479 37.5C18.2506 37.5 17.7737 37.3025 17.4221 36.9508C17.0705 36.5992 16.8729 36.1223 16.8729 35.625V33.75C16.8729 33.2527 17.0705 32.7758 17.4221 32.4242C17.7737 32.0725 18.2506 31.875 18.7479 31.875ZM30.6804 28.0313L32.006 29.3569C32.3476 29.7105 32.5366 30.1841 32.5323 30.6758C32.528 31.1674 32.3308 31.6376 31.9832 31.9853C31.6356 32.3329 31.1653 32.5301 30.6737 32.5344C30.1821 32.5387 29.7084 32.3497 29.3548 32.0081L28.0292 30.6825C27.6876 30.3289 27.4986 29.8552 27.5029 29.3636C27.5072 28.872 27.7044 28.4017 28.052 28.0541C28.3997 27.7064 28.8699 27.5093 29.3615 27.505C29.8532 27.5007 30.3268 27.6897 30.6804 28.0313ZM6.81542 28.0313C7.15284 27.695 7.60561 27.4997 8.08177 27.4852C8.55792 27.4707 9.02176 27.6379 9.37907 27.953C9.73638 28.268 9.96037 28.7073 10.0055 29.1815C10.0507 29.6557 9.91369 30.1294 9.6223 30.5063L9.46667 30.6825L8.14105 32.0081C7.80363 32.3444 7.35086 32.5396 6.8747 32.5542C6.39855 32.5687 5.93471 32.4015 5.5774 32.0864C5.22009 31.7713 4.9961 31.3321 4.95092 30.8579C4.90575 30.3836 5.04278 29.91 5.33417 29.5331L5.4898 29.3569L6.81542 28.0313ZM18.7479 7.5C21.7316 7.5 24.5931 8.68526 26.7029 10.795C28.8127 12.9048 29.9979 15.7663 29.9979 18.75C29.9979 21.7337 28.8127 24.5952 26.7029 26.705C24.5931 28.8147 21.7316 30 18.7479 30C15.7642 30 12.9028 28.8147 10.793 26.705C8.68319 24.5952 7.49792 21.7337 7.49792 18.75C7.49792 15.7663 8.68319 12.9048 10.793 10.795C12.9028 8.68526 15.7642 7.5 18.7479 7.5ZM3.74792 16.875C4.22582 16.8755 4.68548 17.0585 5.03299 17.3866C5.38049 17.7147 5.58961 18.163 5.61762 18.6401C5.64563 19.1172 5.49041 19.587 5.18368 19.9534C4.87694 20.3199 4.44185 20.5554 3.9673 20.6119L3.74792 20.625H1.87292C1.39502 20.6245 0.935362 20.4415 0.587857 20.1134C0.240352 19.7853 0.0312322 19.337 0.00322507 18.8599C-0.024782 18.3828 0.130438 17.913 0.437169 17.5466C0.743901 17.1801 1.17899 16.9446 1.65355 16.8881L1.87292 16.875H3.74792ZM35.6229 16.875C36.1202 16.875 36.5971 17.0725 36.9487 17.4242C37.3004 17.7758 37.4979 18.2527 37.4979 18.75C37.4979 19.2473 37.3004 19.7242 36.9487 20.0758C36.5971 20.4275 36.1202 20.625 35.6229 20.625H33.7479C33.2506 20.625 32.7737 20.4275 32.4221 20.0758C32.0705 19.7242 31.8729 19.2473 31.8729 18.75C31.8729 18.2527 32.0705 17.7758 32.4221 17.4242C32.7737 17.0725 33.2506 16.875 33.7479 16.875H35.6229ZM5.4898 5.49187C5.81266 5.16904 6.24222 4.97511 6.6979 4.94646C7.15357 4.91781 7.60404 5.0564 7.9648 5.33625L8.14105 5.49187L9.46667 6.8175C9.80295 7.15492 9.99819 7.60769 10.0127 8.08384C10.0273 8.56 9.86002 9.02384 9.54496 9.38115C9.22989 9.73846 8.79064 9.96245 8.31641 10.0076C7.84218 10.0528 7.36853 9.91577 6.99167 9.62437L6.81542 9.46875L5.4898 8.14312C5.13829 7.79151 4.94082 7.31468 4.94082 6.8175C4.94082 6.32032 5.13829 5.84349 5.4898 5.49187ZM32.006 5.49187C32.3576 5.84349 32.555 6.32032 32.555 6.8175C32.555 7.31468 32.3576 7.79151 32.006 8.14312L30.6804 9.46875C30.5075 9.64783 30.3006 9.79067 30.0718 9.88894C29.843 9.98721 29.597 10.0389 29.348 10.0411C29.0991 10.0433 28.8522 9.99582 28.6218 9.90154C28.3913 9.80726 28.182 9.66804 28.0059 9.49199C27.8299 9.31594 27.6907 9.10659 27.5964 8.87616C27.5021 8.64573 27.4547 8.39883 27.4568 8.14987C27.459 7.90091 27.5107 7.65487 27.609 7.42612C27.7072 7.19736 27.8501 6.99046 28.0292 6.8175L29.3548 5.49187C29.7064 5.14037 30.1832 4.9429 30.6804 4.9429C31.1776 4.9429 31.6544 5.14037 32.006 5.49187ZM18.7479 0C19.2452 0 19.7221 0.197544 20.0737 0.549175C20.4254 0.900805 20.6229 1.37772 20.6229 1.875V3.75C20.6229 4.24728 20.4254 4.72419 20.0737 5.07582C19.7221 5.42746 19.2452 5.625 18.7479 5.625C18.2506 5.625 17.7737 5.42746 17.4221 5.07582C17.0705 4.72419 16.8729 4.24728 16.8729 3.75V1.875C16.8729 1.37772 17.0705 0.900805 17.4221 0.549175C17.7737 0.197544 18.2506 0 18.7479 0Z" fill="#5060FE"/>
</svg>
