<svg width="37" height="37" viewBox="0 0 37 37" fill="none" xmlns="http://www.w3.org/2000/svg">
<path fill-rule="evenodd" clip-rule="evenodd" d="M9.85265 0.415141C12.1963 -0.188684 14.6612 -0.132866 16.975 0.576427C19.2889 1.28572 21.3616 2.62088 22.9642 4.43437C24.5668 6.24786 25.6369 8.46909 26.0562 10.8526C26.4755 13.2362 26.2277 15.6892 25.3402 17.9408L33.9633 25.2401C34.6173 25.7928 35.1494 26.4752 35.5261 27.2442C35.9028 28.0131 36.1157 28.8518 36.1515 29.7073C36.1873 30.5628 36.0452 31.4165 35.7341 32.2142C35.423 33.0119 34.9497 33.7364 34.3442 34.3418C33.7387 34.9472 33.0141 35.4203 32.2163 35.7312C31.4185 36.0421 30.5649 36.1841 29.7094 36.1481C28.8539 36.1121 28.0152 35.899 27.2463 35.5221C26.4775 35.1453 25.7952 34.613 25.2427 33.9589L17.947 25.3395C15.6952 26.2285 13.2414 26.4774 10.857 26.0588C8.47252 25.6401 6.25028 24.5703 4.43594 22.9674C2.6216 21.3646 1.28584 19.2913 0.57636 16.9766C-0.133124 14.662 -0.1887 12.1963 0.415778 9.85202C0.501008 9.52263 0.673404 9.22228 0.914844 8.98256C1.15628 8.74283 1.45785 8.57258 1.78784 8.4897C2.11782 8.40682 2.46405 8.41437 2.79011 8.51156C3.11617 8.60875 3.41002 8.79199 3.64078 9.04201L9.35015 15.2426L13.657 13.6583L15.2452 9.34577L9.04078 3.64577C8.78926 3.41508 8.60475 3.12072 8.50677 2.7938C8.40879 2.46688 8.40097 2.11955 8.48415 1.78856C8.56734 1.45756 8.73842 1.15519 8.97931 0.913435C9.22021 0.671676 9.52196 0.499509 9.85265 0.415141Z" fill="#5060FE"/>
</svg>
