<svg width="30" height="38" viewBox="0 0 30 38" fill="none" xmlns="http://www.w3.org/2000/svg">
<path fill-rule="evenodd" clip-rule="evenodd" d="M24.375 0C25.8668 0 27.2976 0.592632 28.3525 1.64752C29.4074 2.70242 30 4.13316 30 5.625V31.875C30 33.3668 29.4074 34.7976 28.3525 35.8525C27.2976 36.9074 25.8668 37.5 24.375 37.5H5.625C4.13316 37.5 2.70242 36.9074 1.64752 35.8525C0.592632 34.7976 0 33.3668 0 31.875V5.625C0 4.13316 0.592632 2.70242 1.64752 1.64752C2.70242 0.592632 4.13316 0 5.625 0H24.375ZM15 16.875C13.0109 16.875 11.1032 17.6652 9.6967 19.0717C8.29018 20.4782 7.5 22.3859 7.5 24.375C7.5 26.3641 8.29018 28.2718 9.6967 29.6783C11.1032 31.0848 13.0109 31.875 15 31.875C16.9891 31.875 18.8968 31.0848 20.3033 29.6783C21.7098 28.2718 22.5 26.3641 22.5 24.375C22.5 22.3859 21.7098 20.4782 20.3033 19.0717C18.8968 17.6652 16.9891 16.875 15 16.875ZM15 20.625C15.9946 20.625 16.9484 21.0201 17.6516 21.7234C18.3549 22.4266 18.75 23.3804 18.75 24.375C18.75 25.3696 18.3549 26.3234 17.6516 27.0266C16.9484 27.7299 15.9946 28.125 15 28.125C14.0054 28.125 13.0516 27.7299 12.3484 27.0266C11.6451 26.3234 11.25 25.3696 11.25 24.375C11.25 23.3804 11.6451 22.4266 12.3484 21.7234C13.0516 21.0201 14.0054 20.625 15 20.625ZM15 5.625C14.2541 5.625 13.5387 5.92132 13.0113 6.44876C12.4838 6.97621 12.1875 7.69158 12.1875 8.4375C12.1875 9.18342 12.4838 9.89879 13.0113 10.4262C13.5387 10.9537 14.2541 11.25 15 11.25C15.7459 11.25 16.4613 10.9537 16.9887 10.4262C17.5162 9.89879 17.8125 9.18342 17.8125 8.4375C17.8125 7.69158 17.5162 6.97621 16.9887 6.44876C16.4613 5.92132 15.7459 5.625 15 5.625Z" fill="#5060FE"/>
</svg>
