<svg width="30" height="38" viewBox="0 0 30 38" fill="none" xmlns="http://www.w3.org/2000/svg">
<path fill-rule="evenodd" clip-rule="evenodd" d="M30 18.75V30C30.0003 30.9461 29.643 31.8573 28.9997 32.551C28.3564 33.2447 27.4747 33.6697 26.5312 33.7406L26.25 33.75H23.6588L24.1762 34.7869C24.3886 35.2144 24.4298 35.7068 24.2916 36.1637C24.1534 36.6206 23.8461 37.0076 23.4324 37.2458C23.0188 37.4839 22.5298 37.5554 22.0653 37.4455C21.6007 37.3356 21.1956 37.0527 20.9325 36.6544L20.8237 36.4631L19.4662 33.75H10.5338L9.17625 36.4631C8.96251 36.8912 8.59318 37.2214 8.14391 37.3861C7.69464 37.5507 7.19942 37.5374 6.75967 37.3488C6.31992 37.1602 5.96891 36.8106 5.77853 36.3716C5.58815 35.9326 5.5728 35.4374 5.73563 34.9875L5.82375 34.7869L6.34125 33.75H3.75C2.80392 33.7503 1.89269 33.393 1.19897 32.7497C0.505258 32.1064 0.0803314 31.2247 0.0093754 30.2812L1.88003e-07 30V18.75H30ZM16.875 24.375H13.125C12.6277 24.375 12.1508 24.5725 11.7992 24.9242C11.4475 25.2758 11.25 25.7527 11.25 26.25C11.25 26.7473 11.4475 27.2242 11.7992 27.5758C12.1508 27.9275 12.6277 28.125 13.125 28.125H16.875C17.3723 28.125 17.8492 27.9275 18.2008 27.5758C18.5525 27.2242 18.75 26.7473 18.75 26.25C18.75 25.7527 18.5525 25.2758 18.2008 24.9242C17.8492 24.5725 17.3723 24.375 16.875 24.375ZM26.25 1.88003e-07C27.1961 -0.000299211 28.1073 0.357012 28.801 1.00031C29.4947 1.6436 29.9197 2.52533 29.9906 3.46875L30 3.75V15H1.88003e-07V3.75C-0.000299211 2.80392 0.357012 1.89269 1.00031 1.19897C1.6436 0.505258 2.52533 0.0803314 3.46875 0.0093754L3.75 1.88003e-07H26.25ZM16.875 5.625H13.125C12.6471 5.62553 12.1874 5.80852 11.8399 6.13659C11.4924 6.46466 11.2833 6.91304 11.2553 7.39012C11.2273 7.86719 11.3825 8.33696 11.6892 8.70344C11.996 9.06991 12.4311 9.30543 12.9056 9.36188L13.125 9.375H16.875C17.3529 9.37447 17.8126 9.19148 18.1601 8.86341C18.5076 8.53534 18.7167 8.08696 18.7447 7.60988C18.7727 7.13281 18.6175 6.66304 18.3108 6.29656C18.004 5.93009 17.5689 5.69457 17.0944 5.63812L16.875 5.625Z" fill="#5060FE"/>
</svg>
