<svg width="42" height="32" viewBox="0 0 42 32" fill="none" xmlns="http://www.w3.org/2000/svg">
<path d="M20.625 16.875C24.1369 16.875 27.3188 18.0375 29.6531 19.6631C31.8713 21.21 33.75 23.5088 33.75 25.9819C33.75 27.3394 33.1706 28.4644 32.2575 29.3006C31.3988 30.09 30.2775 30.6019 29.1225 30.9506C26.8144 31.65 23.775 31.875 20.625 31.875C17.475 31.875 14.4356 31.65 12.1275 30.9506C10.9725 30.6019 9.85125 30.09 8.99063 29.3006C8.08125 28.4663 7.5 27.3412 7.5 25.9837C7.5 23.5106 9.37875 21.2119 11.5969 19.665C13.9313 18.0375 17.1131 16.875 20.625 16.875ZM33.75 18.75C35.7075 18.75 37.485 19.3969 38.7994 20.3119C39.9994 21.15 41.25 22.5431 41.25 24.2419C41.25 25.2112 40.8281 26.0156 40.2 26.5912C39.6263 27.1181 38.9175 27.4275 38.2706 27.6225C37.3894 27.8888 36.3488 28.0256 35.2688 28.0856C35.4975 27.4388 35.625 26.7356 35.625 25.9819C35.625 23.1038 33.8269 20.6587 31.815 18.9619C32.4504 18.8212 33.0992 18.7502 33.75 18.75ZM7.5 18.75C8.16938 18.75 8.81813 18.825 9.435 18.9619C7.425 20.6587 5.625 23.1038 5.625 25.9819C5.625 26.7356 5.7525 27.4388 5.98125 28.0856C4.90125 28.0256 3.8625 27.8888 2.97938 27.6225C2.3325 27.4275 1.62375 27.1181 1.04813 26.5912C0.717899 26.2959 0.453816 25.9341 0.273188 25.5295C0.0925599 25.125 -0.000535809 24.6868 2.31968e-06 24.2438C2.31968e-06 22.5469 1.24875 21.1519 2.45063 20.3137C3.93703 19.2942 5.69752 18.749 7.5 18.75ZM32.8125 7.5C34.0557 7.5 35.248 7.99386 36.1271 8.87294C37.0061 9.75201 37.5 10.9443 37.5 12.1875C37.5 13.4307 37.0061 14.623 36.1271 15.5021C35.248 16.3811 34.0557 16.875 32.8125 16.875C31.5693 16.875 30.377 16.3811 29.4979 15.5021C28.6189 14.623 28.125 13.4307 28.125 12.1875C28.125 10.9443 28.6189 9.75201 29.4979 8.87294C30.377 7.99386 31.5693 7.5 32.8125 7.5ZM8.4375 7.5C9.6807 7.5 10.873 7.99386 11.7521 8.87294C12.6311 9.75201 13.125 10.9443 13.125 12.1875C13.125 13.4307 12.6311 14.623 11.7521 15.5021C10.873 16.3811 9.6807 16.875 8.4375 16.875C7.1943 16.875 6.00202 16.3811 5.12294 15.5021C4.24386 14.623 3.75 13.4307 3.75 12.1875C3.75 10.9443 4.24386 9.75201 5.12294 8.87294C6.00202 7.99386 7.1943 7.5 8.4375 7.5ZM20.625 0C22.6141 0 24.5218 0.790176 25.9283 2.1967C27.3348 3.60322 28.125 5.51088 28.125 7.5C28.125 9.48912 27.3348 11.3968 25.9283 12.8033C24.5218 14.2098 22.6141 15 20.625 15C18.6359 15 16.7282 14.2098 15.3217 12.8033C13.9152 11.3968 13.125 9.48912 13.125 7.5C13.125 5.51088 13.9152 3.60322 15.3217 2.1967C16.7282 0.790176 18.6359 0 20.625 0Z" fill="#5060FE"/>
</svg>
