<svg width="34" height="34" viewBox="0 0 34 34" fill="none" xmlns="http://www.w3.org/2000/svg">
<path fill-rule="evenodd" clip-rule="evenodd" d="M19.5983 0.0287959C19.2595 -0.0309813 18.9107 0.00269756 18.5896 0.126214C18.2684 0.249731 17.987 0.458417 17.7755 0.729852C17.564 1.00129 17.4305 1.32521 17.3892 1.66683C17.348 2.00844 17.4006 2.35484 17.5415 2.6688C18.4757 4.74985 18.7552 7.06573 18.3429 9.3093C17.9307 11.5529 16.8461 13.6181 15.2331 15.2311C13.6201 16.8441 11.5549 17.9286 9.31133 18.3409C7.06777 18.7532 4.75188 18.4736 2.67083 17.5394C2.3568 17.3981 2.01017 17.3451 1.66826 17.3861C1.32635 17.4271 1.00209 17.5606 0.730366 17.7721C0.458646 17.9837 0.249754 18.2653 0.126164 18.5867C0.00257495 18.9082 -0.0310327 19.2572 0.0289575 19.5963C0.762845 23.7543 3.02879 27.4861 6.37954 30.0551C9.73028 32.6241 13.9224 33.8436 18.1283 33.473C22.3342 33.1024 26.2484 31.1686 29.0983 28.0532C31.9482 24.9378 33.5266 20.8673 33.5221 16.645C33.522 12.6812 32.1268 8.84388 29.5809 5.8057C27.035 2.76753 23.501 0.722389 19.5983 0.0287959Z" fill="#5060FE"/>
</svg>
