<svg width="36" height="34" viewBox="0 0 36 34" fill="none" xmlns="http://www.w3.org/2000/svg">
<path d="M14.4713 3.56796C16.0233 2.01648 17.9656 0.912858 20.0928 0.373631C22.2201 -0.165597 24.4535 -0.120426 26.5573 0.504376C28.661 1.12918 30.557 2.31042 32.0451 3.9234C33.5332 5.53638 34.5582 7.52123 35.0118 9.6684C35.4654 11.8156 35.3308 14.0454 34.6222 16.1224C33.9137 18.1995 32.6575 20.0466 30.9862 21.4689C29.3149 22.8912 27.2906 23.8359 25.127 24.2031C22.9634 24.5704 20.7407 24.3466 18.6937 23.5555L18.1894 23.3492L18.1519 23.3417H17.0081V26.3005C17.0084 26.8807 16.7934 27.4404 16.4048 27.8713C16.0162 28.3021 15.4816 28.5735 14.9044 28.633L14.6644 28.6442H11.7056V31.603C11.7059 32.1832 11.4909 32.7429 11.1023 33.1738C10.7137 33.6046 10.1791 33.876 9.60188 33.9355L9.36188 33.9467H1.89375C1.42721 33.9467 0.977078 33.7745 0.629679 33.4631C0.28228 33.1517 0.0620619 32.723 0.0112501 32.2592L0 32.053V27.1592C-2.27899e-07 26.509 0.225276 25.8789 0.6375 25.3761L0.825 25.1698L11.1375 14.8555L11.1563 14.7861C11.162 14.7354 11.1595 14.6841 11.1488 14.6342C10.743 12.6588 10.8341 10.6135 11.414 8.68197C11.994 6.75046 13.0445 4.9932 14.4713 3.56796ZM22.425 8.87046C21.8976 9.39808 21.6015 10.1136 21.6016 10.8596C21.6018 11.6055 21.8983 12.3209 22.4259 12.8483C22.9536 13.3756 23.6691 13.6718 24.415 13.6716C25.161 13.6715 25.8764 13.375 26.4038 12.8473C26.9158 12.3167 27.199 11.6061 27.1922 10.8686C27.1855 10.1312 26.8894 9.42594 26.3676 8.90473C25.8459 8.38351 25.1404 8.08806 24.4029 8.082C23.6655 8.07594 22.9552 8.35789 22.425 8.87046Z" fill="#5060FE"/>
</svg>
