<svg width="32" height="37" viewBox="0 0 32 37" fill="none" xmlns="http://www.w3.org/2000/svg">
<path d="M17.365 2.61163C18.6703 1.19021 20.4417 0.283608 22.3581 0.0562286C24.2745 -0.171151 26.2089 0.295745 27.8106 1.37225L28.1481 1.61225L28.7537 2.066C29.5802 2.68565 30.2617 3.47805 30.7507 4.38799C31.2396 5.29793 31.5244 6.30353 31.585 7.33475L31.5962 7.751V35.1354C31.5957 35.6133 31.4127 36.0729 31.0846 36.4204C30.7566 36.7679 30.3082 36.9771 29.8311 37.0051C29.354 37.0331 28.8843 36.8779 28.5178 36.5711C28.1513 36.2644 27.9158 35.8293 27.8593 35.3548L27.8462 35.1354V7.751C27.8463 7.28319 27.7486 6.82052 27.5594 6.39268C27.3702 5.96484 27.0936 5.58129 26.7475 5.26663L26.5037 5.066L25.8981 4.61225C25.2062 4.09359 24.3745 3.79451 23.5107 3.75373C22.6469 3.71295 21.7908 3.93234 21.0531 4.3835L20.7662 4.57475L22.1875 5.396C23.8504 6.3559 25.0819 7.91705 25.6281 9.75781C26.1744 11.5986 25.9939 13.5788 25.1237 15.2904L24.9325 15.641L23.995 17.2648C23.7655 17.6625 23.3979 17.9622 22.9621 18.1071C22.5263 18.2519 22.0525 18.2317 21.6306 18.0504L21.4337 17.951L5.19622 8.576C4.79799 8.34645 4.49796 7.97861 4.35312 7.54238C4.20829 7.10614 4.22874 6.6319 4.41059 6.20975L4.50997 6.01475L5.44747 4.391C6.40768 2.72837 7.96896 1.49731 9.8097 0.9514C11.6504 0.405492 13.6304 0.586317 15.3418 1.45663L15.6925 1.64413L17.365 2.61163ZM6.75247 24.6298C7.18311 24.8784 7.49733 25.2879 7.62603 25.7683C7.75473 26.2486 7.68735 26.7604 7.43872 27.191L6.50122 28.8148C6.25081 29.2419 5.84162 29.5526 5.36294 29.6792C4.88426 29.8058 4.37496 29.7378 3.94617 29.4903C3.51738 29.2427 3.20392 28.8356 3.07419 28.3577C2.94446 27.8799 3.009 27.3702 3.25372 26.9398L4.19122 25.316C4.43987 24.8854 4.8494 24.5711 5.32972 24.4424C5.81005 24.3137 6.32182 24.3811 6.75247 24.6298ZM10.9375 24.881C11.1751 24.4636 11.5639 24.1533 12.0235 24.0142C12.4832 23.875 12.9788 23.9175 13.408 24.133C13.8373 24.3484 14.1675 24.7204 14.3305 25.1722C14.4936 25.624 14.477 26.1211 14.2843 26.561L14.185 26.756L13.2475 28.3798C13.007 28.7912 12.6189 29.0956 12.162 29.2312C11.7052 29.3667 11.2138 29.3233 10.7879 29.1096C10.3619 28.8959 10.0333 28.528 9.86887 28.0807C9.70441 27.6335 9.71642 27.1404 9.90247 26.7016L9.99997 26.5048L10.9375 24.881ZM3.75622 18.5698C4.18686 18.8184 4.50108 19.2279 4.62978 19.7083C4.75848 20.1886 4.6911 20.7004 4.44247 21.131L3.50497 22.7548C3.38275 22.9697 3.21922 23.1584 3.0238 23.3099C2.82837 23.4614 2.6049 23.5727 2.36627 23.6375C2.12763 23.7023 1.87854 23.7193 1.63332 23.6874C1.38811 23.6555 1.15162 23.5754 0.937479 23.4518C0.723335 23.3282 0.535761 23.1634 0.385557 22.967C0.235354 22.7705 0.125488 22.5463 0.0622837 22.3073C-0.000920277 22.0682 -0.0162136 21.819 0.0172847 21.574C0.0507829 21.329 0.132411 21.0931 0.257469 20.8798L1.19497 19.256C1.44362 18.8254 1.85315 18.5111 2.33347 18.3824C2.8138 18.2537 3.32557 18.3211 3.75622 18.5698ZM10.5025 18.1348C10.9331 18.3834 11.2473 18.7929 11.376 19.2733C11.5047 19.7536 11.4373 20.2654 11.1887 20.696L10.2512 22.3198C10.0008 22.7469 9.59162 23.0576 9.11294 23.1842C8.63426 23.3108 8.12496 23.2428 7.69617 22.9953C7.26738 22.7477 6.95392 22.3406 6.82419 21.8627C6.69446 21.3849 6.759 20.8752 7.00372 20.4448L7.94122 18.821C8.18987 18.3904 8.5994 18.0761 9.07972 17.9474C9.56005 17.8187 10.0718 17.8861 10.5025 18.1348ZM14.6875 18.386C14.9251 17.9686 15.3139 17.6583 15.7735 17.5192C16.2332 17.38 16.7288 17.4225 17.158 17.638C17.5873 17.8534 17.9175 18.2254 18.0805 18.6772C18.2436 19.129 18.227 19.6261 18.0343 20.066L17.935 20.261L16.9975 21.8848C16.7577 22.298 16.3693 22.6041 15.9115 22.7406C15.4537 22.8771 14.9611 22.8337 14.5342 22.6193C14.1073 22.4049 13.7783 22.0356 13.6144 21.5869C13.4506 21.1382 13.4642 20.6438 13.6525 20.2048L13.75 20.0098L14.6875 18.386ZM7.50622 12.0748C7.93686 12.3234 8.25108 12.7329 8.37978 13.2133C8.50848 13.6936 8.4411 14.2054 8.19247 14.636L7.25497 16.2598C7.13275 16.4747 6.96922 16.6634 6.7738 16.8149C6.57837 16.9664 6.3549 17.0777 6.11627 17.1425C5.87763 17.2073 5.62854 17.2243 5.38332 17.1924C5.13811 17.1605 4.90162 17.0805 4.68748 16.9568C4.47333 16.8332 4.28576 16.6684 4.13556 16.472C3.98535 16.2755 3.87549 16.0513 3.81228 15.8123C3.74908 15.5732 3.73379 15.324 3.76728 15.079C3.80078 14.834 3.88241 14.5981 4.00747 14.3848L4.94497 12.761C5.19362 12.3304 5.60315 12.0161 6.08347 11.8874C6.5638 11.7587 7.07557 11.8261 7.50622 12.0748Z" fill="#5060FE"/>
</svg>
