<svg width="142" height="166" viewBox="0 0 142 166" fill="none" xmlns="http://www.w3.org/2000/svg">
<path fill-rule="evenodd" clip-rule="evenodd" d="M74.7549 1.05211C80.5922 -0.920102 87.0273 -0.0935694 92.1855 3.31676L132.606 30.0423C141.82 36.1343 144.352 48.5423 138.26 57.7562C136.688 60.1338 134.694 62.0647 132.444 63.5189C138.515 71.7095 142 81.2641 142 91.4681C142 121.786 122.671 140.434 90.582 145.232L87.8438 151.764C86.95 153.895 85.8541 155.936 84.5723 157.859C83.1938 159.926 81.6146 161.854 79.8574 163.611L78.4141 165.054C77.633 165.835 76.367 165.835 75.5859 165.054L73.9814 163.45C72.3308 161.799 70.8317 160.003 69.5029 158.083C67.8398 155.681 66.4524 153.099 65.3672 150.386L63.6602 146.12C26.1526 143.299 0 123.37 0 91.4681C6.66061e-05 77.6433 7.24175 65.0099 18.7236 55.347C15.4917 53.0978 12.888 49.8754 11.4131 45.9047C7.56724 35.5502 12.8438 24.0377 23.1982 20.1918L74.1924 1.25231L74.7549 1.05211Z" fill="#5060FE"/>
<rect x="42" y="59" width="16" height="24" rx="8" fill="white"/>
<rect x="72" y="59" width="16" height="24" rx="8" fill="white"/>
</svg>
