<svg width="27" height="24" viewBox="0 0 27 24" fill="none" xmlns="http://www.w3.org/2000/svg">
<path d="M11.0241 22.2107C11.5081 22.4333 11.8975 22.656 12.1615 22.82C12.5415 23.056 12.8601 23.3333 13.3348 23.3333C13.7988 23.3333 14.1281 23.0533 14.5055 22.82C14.7695 22.656 15.1588 22.4333 15.6428 22.2107C16.6201 21.7587 17.9241 21.3333 19.3335 21.3333C21.0388 21.3333 22.5841 21.9573 23.5735 22.4827C23.8857 22.6462 24.2337 22.7293 24.5862 22.7247C24.9386 22.72 25.2843 22.6277 25.5921 22.456C26.1615 22.1413 26.6668 21.5093 26.6668 20.6667V4C26.6668 3.172 26.2735 2.316 25.4695 1.828C24.4375 1.20133 22.1148 0 19.3335 0C17.4095 0 15.7135 0.573333 14.5241 1.12267C14.0521 1.34133 13.6495 1.56 13.3335 1.74667C13.0175 1.56 12.6148 1.34133 12.1428 1.12267C10.9535 0.574667 9.25745 0 7.33345 0C4.55212 0 2.22945 1.2 1.19745 1.828C0.827805 2.05636 0.523367 2.37628 0.313607 2.75679C0.103846 3.1373 -0.00413283 3.56552 0.000120992 4V20.6667C0.000120992 21.5107 0.505454 22.1413 1.07479 22.456C1.63879 22.7667 2.40279 22.8493 3.09479 22.4827C4.08279 21.9573 5.62812 21.3333 7.33345 21.3333C8.74279 21.3333 10.0468 21.76 11.0241 22.2107Z" fill="#FFD45D"/>
</svg>
