<svg width="24" height="27" viewBox="0 0 24 27" fill="none" xmlns="http://www.w3.org/2000/svg">
<path fill-rule="evenodd" clip-rule="evenodd" d="M19.4044 18.808C19.6964 18.6619 20.0319 18.6281 20.3472 18.7129C20.6625 18.7976 20.9357 18.9952 21.1151 19.268L21.1924 19.404L23.8591 24.7373C23.9542 24.9275 24.0025 25.1377 23.9999 25.3504C23.9972 25.563 23.9438 25.772 23.844 25.9597C23.7441 26.1475 23.6008 26.3087 23.426 26.4298C23.2512 26.5509 23.05 26.6285 22.8391 26.656L22.6671 26.6667H1.33376C1.12106 26.6667 0.91142 26.6159 0.722359 26.5184C0.533298 26.421 0.3703 26.2797 0.246975 26.1064C0.123651 25.9331 0.0435793 25.7328 0.0134468 25.5222C-0.0166857 25.3117 0.00399536 25.0969 0.0737632 24.896L0.14043 24.736L2.8071 19.4027C2.95656 19.0937 3.21939 18.8543 3.5409 18.7343C3.86241 18.6142 4.21784 18.6227 4.53321 18.7581C4.84859 18.8934 5.09963 19.1452 5.23409 19.461C5.36855 19.7767 5.37607 20.1322 5.2551 20.4533L5.19243 20.596L3.4911 24H20.5098L18.8084 20.596C18.6505 20.2798 18.6246 19.9139 18.7364 19.5786C18.8481 19.2434 19.0884 18.9662 19.4044 18.808ZM12.0004 0C14.4758 0 16.8498 0.98333 18.6001 2.73367C20.3504 4.48401 21.3338 6.85798 21.3338 9.33333C21.3338 12.5093 19.6151 15.0893 17.8364 16.92C16.8539 17.9179 15.7738 18.8148 14.6124 19.5973L14.1151 19.9253L13.6724 20.204C13.6031 20.2453 13.5364 20.284 13.4738 20.324L13.1311 20.5213C12.4271 20.9213 11.5738 20.9213 10.8698 20.5213L10.5271 20.3227L10.1138 20.0707C10.0375 20.0227 9.96147 19.9742 9.88576 19.9253L9.38843 19.5973C8.22702 18.8148 7.14696 17.9179 6.16443 16.92C4.38576 15.0893 2.6671 12.5093 2.6671 9.33333C2.6671 6.85798 3.65043 4.48401 5.40077 2.73367C7.15111 0.98333 9.52508 0 12.0004 0ZM12.0004 6.66667C11.2932 6.66667 10.6149 6.94762 10.1148 7.44771C9.61472 7.94781 9.33376 8.62609 9.33376 9.33333C9.33376 10.0406 9.61472 10.7189 10.1148 11.219C10.6149 11.719 11.2932 12 12.0004 12C12.7077 12 13.386 11.719 13.886 11.219C14.3861 10.7189 14.6671 10.0406 14.6671 9.33333C14.6671 8.62609 14.3861 7.94781 13.886 7.44771C13.386 6.94762 12.7077 6.66667 12.0004 6.66667Z" fill="#7986FF"/>
</svg>
