<svg width="14" height="14" viewBox="0 0 14 14" fill="none" xmlns="http://www.w3.org/2000/svg">
<path d="M4.875 9.75C3.5125 9.75 2.35938 9.27812 1.41563 8.33438C0.471875 7.39062 0 6.2375 0 4.875C0 3.5125 0.471875 2.35938 1.41563 1.41563C2.35938 0.471875 3.5125 0 4.875 0C6.2375 0 7.39062 0.471875 8.33438 1.41563C9.27812 2.35938 9.75 3.5125 9.75 4.875C9.75 5.425 9.6625 5.94375 9.4875 6.43125C9.3125 6.91875 9.075 7.35 8.775 7.725L12.975 11.925C13.1125 12.0625 13.1813 12.2375 13.1813 12.45C13.1813 12.6625 13.1125 12.8375 12.975 12.975C12.8375 13.1125 12.6625 13.1813 12.45 13.1813C12.2375 13.1813 12.0625 13.1125 11.925 12.975L7.725 8.775C7.35 9.075 6.91875 9.3125 6.43125 9.4875C5.94375 9.6625 5.425 9.75 4.875 9.75ZM4.875 8.25C5.8125 8.25 6.60938 7.92188 7.26562 7.26562C7.92188 6.60938 8.25 5.8125 8.25 4.875C8.25 3.9375 7.92188 3.14062 7.26562 2.48438C6.60938 1.82812 5.8125 1.5 4.875 1.5C3.9375 1.5 3.14062 1.82812 2.48438 2.48438C1.82812 3.14062 1.5 3.9375 1.5 4.875C1.5 5.8125 1.82812 6.60938 2.48438 7.26562C3.14062 7.92188 3.9375 8.25 4.875 8.25Z" fill="#656565"/>
</svg>
