<svg width="13" height="12" viewBox="0 0 13 12" fill="none" xmlns="http://www.w3.org/2000/svg">
<path d="M5.61458 6.37917L4.76875 5.54792C4.66181 5.44097 4.52812 5.3875 4.36771 5.3875C4.20729 5.3875 4.06875 5.44583 3.95208 5.5625C3.84514 5.66944 3.79167 5.80556 3.79167 5.97083C3.79167 6.13611 3.84514 6.27222 3.95208 6.37917L5.20625 7.63333C5.32292 7.75 5.45903 7.80833 5.61458 7.80833C5.77014 7.80833 5.90625 7.75 6.02292 7.63333L8.50208 5.15417C8.61875 5.0375 8.67465 4.90139 8.66979 4.74583C8.66493 4.59028 8.60903 4.45417 8.50208 4.3375C8.38542 4.22083 8.24687 4.16007 8.08646 4.15521C7.92604 4.15035 7.7875 4.20625 7.67083 4.32292L5.61458 6.37917ZM3.98125 11.6583L3.13542 10.2292L1.53125 9.87917C1.38542 9.85 1.26875 9.77465 1.18125 9.65313C1.09375 9.5316 1.05972 9.39792 1.07917 9.25208L1.23958 7.60417L0.145833 6.35C0.0486111 6.24306 0 6.11667 0 5.97083C0 5.825 0.0486111 5.69861 0.145833 5.59167L1.23958 4.3375L1.07917 2.68958C1.05972 2.54375 1.09375 2.41007 1.18125 2.28854C1.26875 2.16701 1.38542 2.09167 1.53125 2.0625L3.13542 1.7125L3.98125 0.283333C4.05903 0.156944 4.16597 0.071875 4.30208 0.028125C4.43819 -0.015625 4.57431 -0.00833333 4.71042 0.05L6.22708 0.691667L7.74375 0.05C7.87986 -0.00833333 8.01597 -0.015625 8.15208 0.028125C8.28819 0.071875 8.39514 0.156944 8.47292 0.283333L9.31875 1.7125L10.9229 2.0625C11.0687 2.09167 11.1854 2.16701 11.2729 2.28854C11.3604 2.41007 11.3944 2.54375 11.375 2.68958L11.2146 4.3375L12.3083 5.59167C12.4056 5.69861 12.4542 5.825 12.4542 5.97083C12.4542 6.11667 12.4056 6.24306 12.3083 6.35L11.2146 7.60417L11.375 9.25208C11.3944 9.39792 11.3604 9.5316 11.2729 9.65313C11.1854 9.77465 11.0687 9.85 10.9229 9.87917L9.31875 10.2292L8.47292 11.6583C8.39514 11.7847 8.28819 11.8698 8.15208 11.9135C8.01597 11.9573 7.87986 11.95 7.74375 11.8917L6.22708 11.25L4.71042 11.8917C4.57431 11.95 4.43819 11.9573 4.30208 11.9135C4.16597 11.8698 4.05903 11.7847 3.98125 11.6583Z" fill="#5060FE"/>
</svg>
