<svg width="30" height="30" viewBox="0 0 30 30" fill="none" xmlns="http://www.w3.org/2000/svg">
<mask id="mask0_461_3011" style="mask-type:alpha" maskUnits="userSpaceOnUse" x="0" y="0" width="30" height="30">
<rect width="30" height="30" fill="#D9D9D9"/>
</mask>
<g mask="url(#mask0_461_3011)">
<path d="M24.1094 8.39062C23.8698 8.15104 23.75 7.85417 23.75 7.5V6.25H22.5C22.1458 6.25 21.849 6.13021 21.6094 5.89062C21.3698 5.65104 21.25 5.35417 21.25 5C21.25 4.64583 21.3698 4.34896 21.6094 4.10938C21.849 3.86979 22.1458 3.75 22.5 3.75H23.75V2.5C23.75 2.14583 23.8698 1.84896 24.1094 1.60938C24.349 1.36979 24.6458 1.25 25 1.25C25.3542 1.25 25.651 1.36979 25.8906 1.60938C26.1302 1.84896 26.25 2.14583 26.25 2.5V3.75H27.5C27.8542 3.75 28.151 3.86979 28.3906 4.10938C28.6302 4.34896 28.75 4.64583 28.75 5C28.75 5.35417 28.6302 5.65104 28.3906 5.89062C28.151 6.13021 27.8542 6.25 27.5 6.25H26.25V7.5C26.25 7.85417 26.1302 8.15104 25.8906 8.39062C25.651 8.63021 25.3542 8.75 25 8.75C24.6458 8.75 24.349 8.63021 24.1094 8.39062ZM13.75 21.875C15.3125 21.875 16.6406 21.3281 17.7344 20.2344C18.8281 19.1406 19.375 17.8125 19.375 16.25C19.375 14.6875 18.8281 13.3594 17.7344 12.2656C16.6406 11.1719 15.3125 10.625 13.75 10.625C12.1875 10.625 10.8594 11.1719 9.76562 12.2656C8.67188 13.3594 8.125 14.6875 8.125 16.25C8.125 17.8125 8.67188 19.1406 9.76562 20.2344C10.8594 21.3281 12.1875 21.875 13.75 21.875ZM13.75 19.375C12.875 19.375 12.1354 19.0729 11.5312 18.4688C10.9271 17.8646 10.625 17.125 10.625 16.25C10.625 15.375 10.9271 14.6354 11.5312 14.0312C12.1354 13.4271 12.875 13.125 13.75 13.125C14.625 13.125 15.3646 13.4271 15.9688 14.0312C16.5729 14.6354 16.875 15.375 16.875 16.25C16.875 17.125 16.5729 17.8646 15.9688 18.4688C15.3646 19.0729 14.625 19.375 13.75 19.375ZM3.75 26.25C3.0625 26.25 2.47396 26.0052 1.98438 25.5156C1.49479 25.026 1.25 24.4375 1.25 23.75V8.75C1.25 8.0625 1.49479 7.47396 1.98438 6.98438C2.47396 6.49479 3.0625 6.25 3.75 6.25H7.6875L9.25 4.5625C9.47917 4.3125 9.75521 4.11458 10.0781 3.96875C10.401 3.82292 10.7396 3.75 11.0938 3.75H17.5C17.8542 3.75 18.151 3.86979 18.3906 4.10938C18.6302 4.34896 18.75 4.64583 18.75 5V6.875C18.75 7.39583 18.9323 7.83854 19.2969 8.20312C19.6615 8.56771 20.1042 8.75 20.625 8.75H21.25V9.375C21.25 9.89583 21.4323 10.3385 21.7969 10.7031C22.1615 11.0677 22.6042 11.25 23.125 11.25H25C25.3542 11.25 25.651 11.3698 25.8906 11.6094C26.1302 11.849 26.25 12.1458 26.25 12.5V23.75C26.25 24.4375 26.0052 25.026 25.5156 25.5156C25.026 26.0052 24.4375 26.25 23.75 26.25H3.75Z" fill="#ABABAB"/>
</g>
</svg>
