<svg width="81" height="81" viewBox="0 0 81 81" fill="none" xmlns="http://www.w3.org/2000/svg">
<circle cx="40.5" cy="40.5" r="40.5" fill="#5060FE"/>
<mask id="mask0_461_2849" style="mask-type:alpha" maskUnits="userSpaceOnUse" x="11" y="11" width="60" height="60">
<rect x="11" y="11" width="60" height="60" fill="#D9D9D9"/>
</mask>
<g mask="url(#mask0_461_2849)">
<path d="M34.8748 48.875L56.0623 27.6875C56.5623 27.1875 57.1456 26.9375 57.8123 26.9375C58.479 26.9375 59.0623 27.1875 59.5623 27.6875C60.0623 28.1875 60.3123 28.7813 60.3123 29.4688C60.3123 30.1563 60.0623 30.75 59.5623 31.25L36.6248 54.25C36.1248 54.75 35.5415 55 34.8748 55C34.2081 55 33.6248 54.75 33.1248 54.25L22.3748 43.5C21.8748 43 21.6352 42.4062 21.656 41.7188C21.6769 41.0312 21.9373 40.4375 22.4373 39.9375C22.9373 39.4375 23.531 39.1875 24.2185 39.1875C24.906 39.1875 25.4998 39.4375 25.9998 39.9375L34.8748 48.875Z" fill="white"/>
</g>
</svg>
